<svg xmlns="http://www.w3.org/2000/svg" viewBox="0 0 1600 700" role="img" aria-label="헐버트 문서 일러스트"><defs><linearGradient id="sky" x1="0" y1="0" x2="0" y2="1"><stop offset="0" stop-color="#f1efea"/><stop offset="1" stop-color="#e1ddd3"/></linearGradient></defs><rect width="1600" height="700" fill="url(#sky)"/><circle cx="1156" cy="190" r="115" fill="#d0c8b6" fill-opacity=".18"/><circle cx="1156" cy="190" r="72" fill="#d0c8b6"/><path d="M0,470 Q400,320 800,421.5 T1600,470 L1600,700 L0,700 Z" fill="#cdc6b8"/><path d="M0,516 Q400,396 800,470.0 T1600,516 L1600,700 L0,700 Z" fill="#aaa293"/><rect x="823" y="452" width="150" height="68" fill="#4a453c" fill-opacity=".92"/><rect x="886" y="470" width="24" height="50" fill="#f1efea" fill-opacity=".55"/><path d="M748,452 C823,374 973,374 1048,452 C980,416 816,416 748,452 Z" fill="#4a453c"/><rect x="734" y="446" width="328" height="9" rx="4" fill="#4a453c"/><path d="M0,560 Q400,464 800,528.4 T1600,560 L1600,700 L0,700 Z" fill="#847c6f"/><circle cx="1410" cy="110" r="50" fill="#fff" fill-opacity=".34"/><circle cx="1410" cy="110" r="50" fill="none" stroke="#8a8278" stroke-width="2.5" stroke-opacity=".7"/><rect x="1396" y="96" width="28" height="28" rx="4" fill="none" stroke="#8a8278" stroke-width="3.5"/></svg>