<svg xmlns="http://www.w3.org/2000/svg" viewBox="0 0 1600 700" role="img" aria-label="두 개의 브랜드"><defs><linearGradient id="bg" x1="0" y1="0" x2="0" y2="1"><stop offset="0" stop-color="#f6f0e6"/><stop offset="1" stop-color="#ece0cf"/></linearGradient></defs><rect width="1600" height="700" fill="url(#bg)"/><rect x="64" y="50" width="9" height="44" rx="4" fill="#9c5b34"/><text x="88" y="86" font-family="Pretendard,'Apple SD Gothic Neo','Malgun Gothic',sans-serif" font-size="40" font-weight="800" fill="#4a4133" text-anchor="start">두 개의 브랜드</text><rect x="70" y="168" width="655" height="460" rx="20" fill="#fbf6ee" stroke="#c79a6a" stroke-width="2.5"/><path d="M70,226 L70,188 Q70,168 90,168 L705,168 Q725,168 725,188 L725,226 Z" fill="#c79a6a"/><text x="398" y="208" font-family="Pretendard,'Apple SD Gothic Neo','Malgun Gothic',sans-serif" font-size="28" font-weight="800" fill="#fff" text-anchor="middle">헐버트잡화점</text><text x="108" y="276" font-family="Pretendard,'Apple SD Gothic Neo','Malgun Gothic',sans-serif" font-size="24" font-weight="400" fill="#4a4133" text-anchor="start">손님용 매장</text><text x="108" y="322" font-family="Pretendard,'Apple SD Gothic Neo','Malgun Gothic',sans-serif" font-size="24" font-weight="400" fill="#4a4133" text-anchor="start">(사업체)</text><text x="108" y="368" font-family="Pretendard,'Apple SD Gothic Neo','Malgun Gothic',sans-serif" font-size="24" font-weight="400" fill="#4a4133" text-anchor="start">경복궁 옆 서촌 한옥</text><rect x="875" y="168" width="655" height="460" rx="20" fill="#fffdf8" stroke="#9c5b34" stroke-width="2.5"/><path d="M875,226 L875,188 Q875,168 895,168 L1510,168 Q1530,168 1530,188 L1530,226 Z" fill="#9c5b34"/><text x="1202" y="208" font-family="Pretendard,'Apple SD Gothic Neo','Malgun Gothic',sans-serif" font-size="28" font-weight="800" fill="#fff" text-anchor="middle">헐버트작가촌</text><text x="913" y="276" font-family="Pretendard,'Apple SD Gothic Neo','Malgun Gothic',sans-serif" font-size="24" font-weight="400" fill="#4a4133" text-anchor="start">작가용 사이트</text><text x="913" y="322" font-family="Pretendard,'Apple SD Gothic Neo','Malgun Gothic',sans-serif" font-size="24" font-weight="400" fill="#4a4133" text-anchor="start">지금 만드는 것</text><text x="913" y="368" font-family="Pretendard,'Apple SD Gothic Neo','Malgun Gothic',sans-serif" font-size="24" font-weight="400" fill="#4a4133" text-anchor="start">= 작가 모집 단계</text><circle cx="800" cy="398" r="40" fill="#4a4133"/><text x="800" y="407" font-family="Pretendard,'Apple SD Gothic Neo','Malgun Gothic',sans-serif" font-size="26" font-weight="800" fill="#fff" text-anchor="middle">VS</text></svg>