<svg xmlns="http://www.w3.org/2000/svg" viewBox="0 0 1600 700" role="img" aria-label="문서 그룹 지도"><defs><linearGradient id="bg" x1="0" y1="0" x2="0" y2="1"><stop offset="0" stop-color="#f6f0e6"/><stop offset="1" stop-color="#ece0cf"/></linearGradient></defs><rect width="1600" height="700" fill="url(#bg)"/><rect x="64" y="50" width="9" height="44" rx="4" fill="#9c5b34"/><text x="88" y="86" font-family="Pretendard,'Apple SD Gothic Neo','Malgun Gothic',sans-serif" font-size="40" font-weight="800" fill="#4a4133" text-anchor="start">문서 그룹 지도</text><rect x="70" y="168" width="468" height="218" rx="16" fill="#fffdf8" stroke="#c79a6a" stroke-width="2"/><circle cx="100" cy="202" r="7" fill="#9c5b34"/><text x="120" y="211" font-family="Pretendard,'Apple SD Gothic Neo','Malgun Gothic',sans-serif" font-size="27" font-weight="800" fill="#4a4133" text-anchor="start">개념·브랜드</text><rect x="566" y="168" width="468" height="218" rx="16" fill="#fffdf8" stroke="#c79a6a" stroke-width="2"/><circle cx="596" cy="202" r="7" fill="#9c5b34"/><text x="616" y="211" font-family="Pretendard,'Apple SD Gothic Neo','Malgun Gothic',sans-serif" font-size="27" font-weight="800" fill="#4a4133" text-anchor="start">작가촌 사이트</text><rect x="1062" y="168" width="468" height="218" rx="16" fill="#fffdf8" stroke="#c79a6a" stroke-width="2"/><circle cx="1092" cy="202" r="7" fill="#9c5b34"/><text x="1112" y="211" font-family="Pretendard,'Apple SD Gothic Neo','Malgun Gothic',sans-serif" font-size="27" font-weight="800" fill="#4a4133" text-anchor="start">운영·계약</text><rect x="70" y="410" width="468" height="218" rx="16" fill="#fffdf8" stroke="#c79a6a" stroke-width="2"/><circle cx="100" cy="444" r="7" fill="#9c5b34"/><text x="120" y="453" font-family="Pretendard,'Apple SD Gothic Neo','Malgun Gothic',sans-serif" font-size="27" font-weight="800" fill="#4a4133" text-anchor="start">모집</text><rect x="566" y="410" width="468" height="218" rx="16" fill="#fffdf8" stroke="#c79a6a" stroke-width="2"/><circle cx="596" cy="444" r="7" fill="#9c5b34"/><text x="616" y="453" font-family="Pretendard,'Apple SD Gothic Neo','Malgun Gothic',sans-serif" font-size="27" font-weight="800" fill="#4a4133" text-anchor="start">경영·관리</text><rect x="1062" y="410" width="468" height="218" rx="16" fill="#fffdf8" stroke="#c79a6a" stroke-width="2"/><circle cx="1092" cy="444" r="7" fill="#9c5b34"/><text x="1112" y="453" font-family="Pretendard,'Apple SD Gothic Neo','Malgun Gothic',sans-serif" font-size="27" font-weight="800" fill="#4a4133" text-anchor="start">전략·법적</text></svg>