<svg xmlns="http://www.w3.org/2000/svg" viewBox="0 0 1600 700" role="img" aria-label="헐버트 문서 일러스트"><defs><linearGradient id="sky" x1="0" y1="0" x2="0" y2="1"><stop offset="0" stop-color="#f4eee2"/><stop offset="1" stop-color="#e7d6bd"/></linearGradient></defs><rect width="1600" height="700" fill="url(#sky)"/><circle cx="1140" cy="190" r="115" fill="#e8b15e" fill-opacity=".18"/><circle cx="1140" cy="190" r="72" fill="#e8b15e"/><path d="M0,470 Q400,320 800,387.5 T1600,470 L1600,700 L0,700 Z" fill="#dcc8a6"/><path d="M0,516 Q400,396 800,504.0 T1600,516 L1600,700 L0,700 Z" fill="#c4a87d"/><rect x="665" y="452" width="150" height="68" fill="#574635" fill-opacity=".92"/><rect x="728" y="470" width="24" height="50" fill="#f4eee2" fill-opacity=".55"/><path d="M590,452 C665,374 815,374 890,452 C822,416 658,416 590,452 Z" fill="#574635"/><rect x="576" y="446" width="328" height="9" rx="4" fill="#574635"/><path d="M0,560 Q400,464 800,511.4 T1600,560 L1600,700 L0,700 Z" fill="#a4855b"/><circle cx="1410" cy="110" r="50" fill="#fff" fill-opacity=".34"/><circle cx="1410" cy="110" r="50" fill="none" stroke="#9c5b34" stroke-width="2.5" stroke-opacity=".7"/><circle cx="1396" cy="96" r="6.5" fill="#9c5b34"/><circle cx="1396" cy="124" r="6.5" fill="#9c5b34"/><circle cx="1424" cy="96" r="6.5" fill="#9c5b34"/><circle cx="1424" cy="124" r="6.5" fill="#9c5b34"/></svg>