<svg xmlns="http://www.w3.org/2000/svg" viewBox="0 0 1600 700" role="img" aria-label="기존 위탁 vs 헐버트"><defs><linearGradient id="bg" x1="0" y1="0" x2="0" y2="1"><stop offset="0" stop-color="#eef1f6"/><stop offset="1" stop-color="#dbe2ed"/></linearGradient></defs><rect width="1600" height="700" fill="url(#bg)"/><rect x="64" y="50" width="9" height="44" rx="4" fill="#2f6db0"/><text x="88" y="86" font-family="Pretendard,'Apple SD Gothic Neo','Malgun Gothic',sans-serif" font-size="40" font-weight="800" fill="#363f53" text-anchor="start">기존 위탁 vs 헐버트</text><rect x="70" y="168" width="655" height="460" rx="20" fill="#fbf6ee" stroke="#8d9ab5" stroke-width="2.5"/><path d="M70,226 L70,188 Q70,168 90,168 L705,168 Q725,168 725,188 L725,226 Z" fill="#8d9ab5"/><text x="398" y="208" font-family="Pretendard,'Apple SD Gothic Neo','Malgun Gothic',sans-serif" font-size="28" font-weight="800" fill="#fff" text-anchor="middle">기존 위탁·편집숍</text><text x="108" y="276" font-family="Pretendard,'Apple SD Gothic Neo','Malgun Gothic',sans-serif" font-size="24" font-weight="400" fill="#363f53" text-anchor="start">입점비 있음</text><text x="108" y="322" font-family="Pretendard,'Apple SD Gothic Neo','Malgun Gothic',sans-serif" font-size="24" font-weight="400" fill="#363f53" text-anchor="start">매달 자릿세</text><text x="108" y="368" font-family="Pretendard,'Apple SD Gothic Neo','Malgun Gothic',sans-serif" font-size="24" font-weight="400" fill="#363f53" text-anchor="start">수수료 = 회사 마진</text><text x="108" y="414" font-family="Pretendard,'Apple SD Gothic Neo','Malgun Gothic',sans-serif" font-size="24" font-weight="400" fill="#363f53" text-anchor="start">작가는 입점에 머묾</text><rect x="875" y="168" width="655" height="460" rx="20" fill="#fbfcfe" stroke="#2f6db0" stroke-width="2.5"/><path d="M875,226 L875,188 Q875,168 895,168 L1510,168 Q1530,168 1530,188 L1530,226 Z" fill="#2f6db0"/><text x="1202" y="208" font-family="Pretendard,'Apple SD Gothic Neo','Malgun Gothic',sans-serif" font-size="28" font-weight="800" fill="#fff" text-anchor="middle">헐버트잡화점</text><text x="913" y="276" font-family="Pretendard,'Apple SD Gothic Neo','Malgun Gothic',sans-serif" font-size="24" font-weight="400" fill="#363f53" text-anchor="start">입점비 0원</text><text x="913" y="322" font-family="Pretendard,'Apple SD Gothic Neo','Malgun Gothic',sans-serif" font-size="24" font-weight="400" fill="#363f53" text-anchor="start">판 만큼만 복지수수료</text><text x="913" y="368" font-family="Pretendard,'Apple SD Gothic Neo','Malgun Gothic',sans-serif" font-size="24" font-weight="400" fill="#363f53" text-anchor="start">수수료 = 고정비 회수</text><text x="913" y="414" font-family="Pretendard,'Apple SD Gothic Neo','Malgun Gothic',sans-serif" font-size="24" font-weight="400" fill="#363f53" text-anchor="start">파트너 → 주주로 성장</text><circle cx="800" cy="398" r="40" fill="#363f53"/><text x="800" y="407" font-family="Pretendard,'Apple SD Gothic Neo','Malgun Gothic',sans-serif" font-size="26" font-weight="800" fill="#fff" text-anchor="middle">VS</text></svg>