<svg xmlns="http://www.w3.org/2000/svg" viewBox="0 0 1600 700" role="img" aria-label="헐버트 문서 일러스트"><defs><linearGradient id="sky" x1="0" y1="0" x2="0" y2="1"><stop offset="0" stop-color="#eceef1"/><stop offset="1" stop-color="#d9dde3"/></linearGradient></defs><rect width="1600" height="700" fill="url(#sky)"/><circle cx="1315" cy="190" r="115" fill="#b6c0ca" fill-opacity=".18"/><circle cx="1315" cy="190" r="72" fill="#b6c0ca"/><path d="M0,470 Q400,320 800,412.5 T1600,470 L1600,700 L0,700 Z" fill="#bbc3cc"/><path d="M0,516 Q400,396 800,479.0 T1600,516 L1600,700 L0,700 Z" fill="#919ba7"/><rect x="750" y="452" width="150" height="68" fill="#373d45" fill-opacity=".92"/><rect x="813" y="470" width="24" height="50" fill="#eceef1" fill-opacity=".55"/><path d="M675,452 C750,374 900,374 975,452 C908,416 742,416 675,452 Z" fill="#373d45"/><rect x="661" y="446" width="328" height="9" rx="4" fill="#373d45"/><path d="M0,560 Q400,464 800,523.9 T1600,560 L1600,700 L0,700 Z" fill="#6d7782"/><circle cx="1410" cy="110" r="50" fill="#fff" fill-opacity=".34"/><circle cx="1410" cy="110" r="50" fill="none" stroke="#59636f" stroke-width="2.5" stroke-opacity=".7"/><path d="M1410,92 L1426,100 V112 Q1426,126 1410,130 Q1394,126 1394,112 V100 Z" fill="none" stroke="#59636f" stroke-width="3.2" stroke-linejoin="round"/></svg>