<svg xmlns="http://www.w3.org/2000/svg" viewBox="0 0 1600 700" role="img" aria-label="헐버트 문서 일러스트"><defs><linearGradient id="sky" x1="0" y1="0" x2="0" y2="1"><stop offset="0" stop-color="#eef0f5"/><stop offset="1" stop-color="#dbe0ec"/></linearGradient></defs><rect width="1600" height="700" fill="url(#sky)"/><circle cx="1351" cy="190" r="115" fill="#adbad4" fill-opacity=".18"/><circle cx="1351" cy="190" r="72" fill="#adbad4"/><path d="M0,470 Q400,320 800,416.5 T1600,470 L1600,700 L0,700 Z" fill="#b8c2d4"/><path d="M0,516 Q400,396 800,475.0 T1600,516 L1600,700 L0,700 Z" fill="#8d9ab5"/><rect x="678" y="452" width="150" height="68" fill="#383f53" fill-opacity=".92"/><rect x="741" y="470" width="24" height="50" fill="#eef0f5" fill-opacity=".55"/><path d="M603,452 C678,374 828,374 903,452 C836,416 670,416 603,452 Z" fill="#383f53"/><rect x="589" y="446" width="328" height="9" rx="4" fill="#383f53"/><path d="M0,560 Q400,464 800,525.9 T1600,560 L1600,700 L0,700 Z" fill="#697693"/><circle cx="1410" cy="110" r="50" fill="#fff" fill-opacity=".34"/><circle cx="1410" cy="110" r="50" fill="none" stroke="#2f6db0" stroke-width="2.5" stroke-opacity=".7"/><rect x="1391" y="114" width="8" height="12" rx="2" fill="#2f6db0"/><rect x="1406" y="104" width="8" height="22" rx="2" fill="#2f6db0"/><rect x="1421" y="110" width="8" height="16" rx="2" fill="#2f6db0"/></svg>