<svg xmlns="http://www.w3.org/2000/svg" viewBox="0 0 1600 700" role="img" aria-label="무엇을 측정하나"><defs><linearGradient id="bg" x1="0" y1="0" x2="0" y2="1"><stop offset="0" stop-color="#eef1f6"/><stop offset="1" stop-color="#dbe2ed"/></linearGradient></defs><rect width="1600" height="700" fill="url(#bg)"/><rect x="64" y="50" width="9" height="44" rx="4" fill="#2f6db0"/><text x="88" y="86" font-family="Pretendard,'Apple SD Gothic Neo','Malgun Gothic',sans-serif" font-size="40" font-weight="800" fill="#363f53" text-anchor="start">무엇을 측정하나</text><rect x="70" y="168" width="468" height="218" rx="16" fill="#fbfcfe" stroke="#8d9ab5" stroke-width="2"/><circle cx="100" cy="202" r="7" fill="#2f6db0"/><text x="120" y="211" font-family="Pretendard,'Apple SD Gothic Neo','Malgun Gothic',sans-serif" font-size="27" font-weight="800" fill="#363f53" text-anchor="start">작가 잔존율</text><rect x="566" y="168" width="468" height="218" rx="16" fill="#fbfcfe" stroke="#8d9ab5" stroke-width="2"/><circle cx="596" cy="202" r="7" fill="#2f6db0"/><text x="616" y="211" font-family="Pretendard,'Apple SD Gothic Neo','Malgun Gothic',sans-serif" font-size="27" font-weight="800" fill="#363f53" text-anchor="start">재입점률</text><rect x="1062" y="168" width="468" height="218" rx="16" fill="#fbfcfe" stroke="#8d9ab5" stroke-width="2"/><circle cx="1092" cy="202" r="7" fill="#2f6db0"/><text x="1112" y="211" font-family="Pretendard,'Apple SD Gothic Neo','Malgun Gothic',sans-serif" font-size="27" font-weight="800" fill="#363f53" text-anchor="start">매대 회전</text><rect x="70" y="410" width="468" height="218" rx="16" fill="#fbfcfe" stroke="#8d9ab5" stroke-width="2"/><circle cx="100" cy="444" r="7" fill="#2f6db0"/><text x="120" y="453" font-family="Pretendard,'Apple SD Gothic Neo','Malgun Gothic',sans-serif" font-size="27" font-weight="800" fill="#363f53" text-anchor="start">복지수수료 전환</text><rect x="566" y="410" width="468" height="218" rx="16" fill="#fbfcfe" stroke="#8d9ab5" stroke-width="2"/><circle cx="596" cy="444" r="7" fill="#2f6db0"/><text x="616" y="453" font-family="Pretendard,'Apple SD Gothic Neo','Malgun Gothic',sans-serif" font-size="27" font-weight="800" fill="#363f53" text-anchor="start">고정비 회수율</text><rect x="1062" y="410" width="468" height="218" rx="16" fill="#fbfcfe" stroke="#8d9ab5" stroke-width="2"/><circle cx="1092" cy="444" r="7" fill="#2f6db0"/><text x="1112" y="453" font-family="Pretendard,'Apple SD Gothic Neo','Malgun Gothic',sans-serif" font-size="27" font-weight="800" fill="#363f53" text-anchor="start">외국인 구매</text></svg>