<svg xmlns="http://www.w3.org/2000/svg" viewBox="0 0 1600 700" role="img" aria-label="둘러보는 법"><defs><linearGradient id="bg" x1="0" y1="0" x2="0" y2="1"><stop offset="0" stop-color="#f2f0eb"/><stop offset="1" stop-color="#e2ded4"/></linearGradient></defs><rect width="1600" height="700" fill="url(#bg)"/><rect x="64" y="50" width="9" height="44" rx="4" fill="#857b6e"/><text x="88" y="86" font-family="Pretendard,'Apple SD Gothic Neo','Malgun Gothic',sans-serif" font-size="40" font-weight="800" fill="#48433a" text-anchor="start">둘러보는 법</text><rect x="70" y="170" width="328" height="454" rx="20" fill="#fdfcf9" stroke="#aaa293" stroke-width="2"/><text x="234" y="244" font-family="Pretendard,'Apple SD Gothic Neo','Malgun Gothic',sans-serif" font-size="31" font-weight="800" fill="#857b6e" text-anchor="middle">천천히 구경</text><line x1="104" y1="264" x2="364" y2="264" stroke="#aaa293" stroke-width="1.5" stroke-opacity=".5"/><text x="234" y="306" font-family="Pretendard,'Apple SD Gothic Neo','Malgun Gothic',sans-serif" font-size="23" font-weight="400" fill="#48433a" text-anchor="middle">눈으로 먼저</text><path d="M414,381 L434,397 L414,413" fill="none" stroke="#857b6e" stroke-width="6" stroke-linecap="round" stroke-linejoin="round"/><rect x="448" y="170" width="328" height="454" rx="20" fill="#fdfcf9" stroke="#aaa293" stroke-width="2"/><text x="611" y="244" font-family="Pretendard,'Apple SD Gothic Neo','Malgun Gothic',sans-serif" font-size="31" font-weight="800" fill="#857b6e" text-anchor="middle">직원께 한마디</text><line x1="482" y1="264" x2="741" y2="264" stroke="#aaa293" stroke-width="1.5" stroke-opacity=".5"/><text x="611" y="306" font-family="Pretendard,'Apple SD Gothic Neo','Malgun Gothic',sans-serif" font-size="23" font-weight="400" fill="#48433a" text-anchor="middle">만지기 전</text><path d="M791,381 L811,397 L791,413" fill="none" stroke="#857b6e" stroke-width="6" stroke-linecap="round" stroke-linejoin="round"/><rect x="825" y="170" width="328" height="454" rx="20" fill="#fdfcf9" stroke="#aaa293" stroke-width="2"/><text x="989" y="244" font-family="Pretendard,'Apple SD Gothic Neo','Malgun Gothic',sans-serif" font-size="31" font-weight="800" fill="#857b6e" text-anchor="middle">가격 그대로</text><line x1="859" y1="264" x2="1118" y2="264" stroke="#aaa293" stroke-width="1.5" stroke-opacity=".5"/><text x="989" y="306" font-family="Pretendard,'Apple SD Gothic Neo','Malgun Gothic',sans-serif" font-size="23" font-weight="400" fill="#48433a" text-anchor="middle">작가가 정한 값</text><path d="M1168,381 L1188,397 L1168,413" fill="none" stroke="#857b6e" stroke-width="6" stroke-linecap="round" stroke-linejoin="round"/><rect x="1202" y="170" width="328" height="454" rx="20" fill="#fdfcf9" stroke="#aaa293" stroke-width="2"/><text x="1366" y="244" font-family="Pretendard,'Apple SD Gothic Neo','Malgun Gothic',sans-serif" font-size="31" font-weight="800" fill="#857b6e" text-anchor="middle">작가 응원</text><line x1="1236" y1="264" x2="1496" y2="264" stroke="#aaa293" stroke-width="1.5" stroke-opacity=".5"/><text x="1366" y="306" font-family="Pretendard,'Apple SD Gothic Neo','Malgun Gothic',sans-serif" font-size="23" font-weight="400" fill="#48433a" text-anchor="middle">사람과 꿈에</text></svg>