<svg xmlns="http://www.w3.org/2000/svg" viewBox="0 0 1600 700" role="img" aria-label="헐버트 문서 일러스트"><defs><linearGradient id="sky" x1="0" y1="0" x2="0" y2="1"><stop offset="0" stop-color="#fdeee6"/><stop offset="1" stop-color="#fbd7c4"/></linearGradient></defs><rect width="1600" height="700" fill="url(#sky)"/><circle cx="1245" cy="190" r="115" fill="#f69a68" fill-opacity=".18"/><circle cx="1245" cy="190" r="72" fill="#f69a68"/><path d="M0,470 Q400,320 800,402.5 T1600,470 L1600,700 L0,700 Z" fill="#f4b398"/><path d="M0,516 Q400,396 800,489.0 T1600,516 L1600,700 L0,700 Z" fill="#e28765"/><rect x="780" y="452" width="150" height="68" fill="#5d3225" fill-opacity=".92"/><rect x="843" y="470" width="24" height="50" fill="#fdeee6" fill-opacity=".55"/><path d="M705,452 C780,374 930,374 1005,452 C938,416 772,416 705,452 Z" fill="#5d3225"/><rect x="691" y="446" width="328" height="9" rx="4" fill="#5d3225"/><path d="M0,560 Q400,464 800,518.9 T1600,560 L1600,700 L0,700 Z" fill="#c46141"/><circle cx="1410" cy="110" r="50" fill="#fff" fill-opacity=".34"/><circle cx="1410" cy="110" r="50" fill="none" stroke="#c2502f" stroke-width="2.5" stroke-opacity=".7"/><path d="M1410,126 V94 M1399,105 L1410,94 L1421,105" fill="none" stroke="#c2502f" stroke-width="3.5" stroke-linecap="round" stroke-linejoin="round"/></svg>