<svg xmlns="http://www.w3.org/2000/svg" viewBox="0 0 1600 700" role="img" aria-label="헐버트 문서 일러스트"><defs><linearGradient id="sky" x1="0" y1="0" x2="0" y2="1"><stop offset="0" stop-color="#eef3e7"/><stop offset="1" stop-color="#dde8cd"/></linearGradient></defs><rect width="1600" height="700" fill="url(#sky)"/><circle cx="1316" cy="190" r="115" fill="#cdda86" fill-opacity=".18"/><circle cx="1316" cy="190" r="72" fill="#cdda86"/><path d="M0,470 Q400,320 800,411.5 T1600,470 L1600,700 L0,700 Z" fill="#bcce9e"/><path d="M0,516 Q400,396 800,480.0 T1600,516 L1600,700 L0,700 Z" fill="#92ad73"/><rect x="693" y="452" width="150" height="68" fill="#3d4c33" fill-opacity=".92"/><rect x="756" y="470" width="24" height="50" fill="#eef3e7" fill-opacity=".55"/><path d="M618,452 C693,374 843,374 918,452 C850,416 686,416 618,452 Z" fill="#3d4c33"/><rect x="604" y="446" width="328" height="9" rx="4" fill="#3d4c33"/><path d="M0,560 Q400,464 800,523.4 T1600,560 L1600,700 L0,700 Z" fill="#6c8a52"/><circle cx="1410" cy="110" r="50" fill="#fff" fill-opacity=".34"/><circle cx="1410" cy="110" r="50" fill="none" stroke="#2f6b63" stroke-width="2.5" stroke-opacity=".7"/><circle cx="1401" cy="110" r="13" fill="none" stroke="#2f6b63" stroke-width="3.5"/><circle cx="1419" cy="110" r="13" fill="none" stroke="#2f6b63" stroke-width="3.5"/></svg>