<svg xmlns="http://www.w3.org/2000/svg" viewBox="0 0 1600 700" role="img" aria-label="헐버트 문서 일러스트"><defs><linearGradient id="sky" x1="0" y1="0" x2="0" y2="1"><stop offset="0" stop-color="#f3ecf4"/><stop offset="1" stop-color="#e7d4e8"/></linearGradient></defs><rect width="1600" height="700" fill="url(#sky)"/><circle cx="1280" cy="190" r="115" fill="#c79bcc" fill-opacity=".18"/><circle cx="1280" cy="190" r="72" fill="#c79bcc"/><path d="M0,470 Q400,320 800,407.5 T1600,470 L1600,700 L0,700 Z" fill="#ccb0ce"/><path d="M0,516 Q400,396 800,484.0 T1600,516 L1600,700 L0,700 Z" fill="#a682ac"/><rect x="765" y="452" width="150" height="68" fill="#453649" fill-opacity=".92"/><rect x="828" y="470" width="24" height="50" fill="#f3ecf4" fill-opacity=".55"/><path d="M690,452 C765,374 915,374 990,452 C922,416 758,416 690,452 Z" fill="#453649"/><rect x="676" y="446" width="328" height="9" rx="4" fill="#453649"/><path d="M0,560 Q400,464 800,521.4 T1600,560 L1600,700 L0,700 Z" fill="#815d88"/><circle cx="1410" cy="110" r="50" fill="#fff" fill-opacity=".34"/><circle cx="1410" cy="110" r="50" fill="none" stroke="#6b4ea8" stroke-width="2.5" stroke-opacity=".7"/><path d="M1410,92 L1415,105 L1428,110 L1415,115 L1410,128 L1405,115 L1392,110 L1405,105 Z" fill="#6b4ea8"/></svg>