<svg xmlns="http://www.w3.org/2000/svg" viewBox="0 0 1600 700" role="img" aria-label="작가 여정 퍼널"><defs><linearGradient id="bg" x1="0" y1="0" x2="0" y2="1"><stop offset="0" stop-color="#f4edf4"/><stop offset="1" stop-color="#e7d6e8"/></linearGradient></defs><rect width="1600" height="700" fill="url(#bg)"/><rect x="64" y="50" width="9" height="44" rx="4" fill="#6b4ea8"/><text x="88" y="86" font-family="Pretendard,'Apple SD Gothic Neo','Malgun Gothic',sans-serif" font-size="40" font-weight="800" fill="#43354a" text-anchor="start">작가 여정 퍼널</text><rect x="70" y="170" width="328" height="454" rx="20" fill="#fdfbfd" stroke="#a682ac" stroke-width="2"/><text x="234" y="244" font-family="Pretendard,'Apple SD Gothic Neo','Malgun Gothic',sans-serif" font-size="31" font-weight="800" fill="#6b4ea8" text-anchor="middle">인지</text><line x1="104" y1="264" x2="364" y2="264" stroke="#a682ac" stroke-width="1.5" stroke-opacity=".5"/><text x="234" y="306" font-family="Pretendard,'Apple SD Gothic Neo','Malgun Gothic',sans-serif" font-size="23" font-weight="400" fill="#43354a" text-anchor="middle">여기 뭐지?</text><path d="M414,381 L434,397 L414,413" fill="none" stroke="#6b4ea8" stroke-width="6" stroke-linecap="round" stroke-linejoin="round"/><rect x="448" y="170" width="328" height="454" rx="20" fill="#fdfbfd" stroke="#a682ac" stroke-width="2"/><text x="611" y="244" font-family="Pretendard,'Apple SD Gothic Neo','Malgun Gothic',sans-serif" font-size="31" font-weight="800" fill="#6b4ea8" text-anchor="middle">지원</text><line x1="482" y1="264" x2="741" y2="264" stroke="#a682ac" stroke-width="1.5" stroke-opacity=".5"/><text x="611" y="306" font-family="Pretendard,'Apple SD Gothic Neo','Malgun Gothic',sans-serif" font-size="23" font-weight="400" fill="#43354a" text-anchor="middle">나도 해볼까</text><path d="M791,381 L811,397 L791,413" fill="none" stroke="#6b4ea8" stroke-width="6" stroke-linecap="round" stroke-linejoin="round"/><rect x="825" y="170" width="328" height="454" rx="20" fill="#fdfbfd" stroke="#a682ac" stroke-width="2"/><text x="989" y="244" font-family="Pretendard,'Apple SD Gothic Neo','Malgun Gothic',sans-serif" font-size="31" font-weight="800" fill="#6b4ea8" text-anchor="middle">활동(1단계)</text><line x1="859" y1="264" x2="1118" y2="264" stroke="#a682ac" stroke-width="1.5" stroke-opacity=".5"/><text x="989" y="306" font-family="Pretendard,'Apple SD Gothic Neo','Malgun Gothic',sans-serif" font-size="23" font-weight="400" fill="#43354a" text-anchor="middle">잘하고 싶다</text><path d="M1168,381 L1188,397 L1168,413" fill="none" stroke="#6b4ea8" stroke-width="6" stroke-linecap="round" stroke-linejoin="round"/><rect x="1202" y="170" width="328" height="454" rx="20" fill="#fdfbfd" stroke="#a682ac" stroke-width="2"/><text x="1366" y="244" font-family="Pretendard,'Apple SD Gothic Neo','Malgun Gothic',sans-serif" font-size="31" font-weight="800" fill="#6b4ea8" text-anchor="middle">성장(2·3단계)</text><line x1="1236" y1="264" x2="1496" y2="264" stroke="#a682ac" stroke-width="1.5" stroke-opacity=".5"/><text x="1366" y="306" font-family="Pretendard,'Apple SD Gothic Neo','Malgun Gothic',sans-serif" font-size="23" font-weight="400" fill="#43354a" text-anchor="middle">더 깊이</text></svg>