<svg xmlns="http://www.w3.org/2000/svg" viewBox="0 0 1600 700" role="img" aria-label="작가촌 사이트 흐름"><defs><linearGradient id="bg" x1="0" y1="0" x2="0" y2="1"><stop offset="0" stop-color="#fdf5e3"/><stop offset="1" stop-color="#f7e6c4"/></linearGradient></defs><rect width="1600" height="700" fill="url(#bg)"/><rect x="64" y="50" width="9" height="44" rx="4" fill="#c0892c"/><text x="88" y="86" font-family="Pretendard,'Apple SD Gothic Neo','Malgun Gothic',sans-serif" font-size="40" font-weight="800" fill="#5a4528" text-anchor="start">작가촌 사이트 흐름</text><rect x="70" y="170" width="328" height="454" rx="20" fill="#fffdf6" stroke="#dcad5e" stroke-width="2"/><text x="234" y="244" font-family="Pretendard,'Apple SD Gothic Neo','Malgun Gothic',sans-serif" font-size="31" font-weight="800" fill="#c0892c" text-anchor="middle">랜딩</text><line x1="104" y1="264" x2="364" y2="264" stroke="#dcad5e" stroke-width="1.5" stroke-opacity=".5"/><text x="234" y="306" font-family="Pretendard,'Apple SD Gothic Neo','Malgun Gothic',sans-serif" font-size="23" font-weight="400" fill="#5a4528" text-anchor="middle">첫인상·핵심</text><path d="M414,381 L434,397 L414,413" fill="none" stroke="#c0892c" stroke-width="6" stroke-linecap="round" stroke-linejoin="round"/><rect x="448" y="170" width="328" height="454" rx="20" fill="#fffdf6" stroke="#dcad5e" stroke-width="2"/><text x="611" y="244" font-family="Pretendard,'Apple SD Gothic Neo','Malgun Gothic',sans-serif" font-size="31" font-weight="800" fill="#c0892c" text-anchor="middle">소개·공간·작가</text><line x1="482" y1="264" x2="741" y2="264" stroke="#dcad5e" stroke-width="1.5" stroke-opacity=".5"/><text x="611" y="306" font-family="Pretendard,'Apple SD Gothic Neo','Malgun Gothic',sans-serif" font-size="23" font-weight="400" fill="#5a4528" text-anchor="middle">왜 우리인가</text><path d="M791,381 L811,397 L791,413" fill="none" stroke="#c0892c" stroke-width="6" stroke-linecap="round" stroke-linejoin="round"/><rect x="825" y="170" width="328" height="454" rx="20" fill="#fffdf6" stroke="#dcad5e" stroke-width="2"/><text x="989" y="244" font-family="Pretendard,'Apple SD Gothic Neo','Malgun Gothic',sans-serif" font-size="31" font-weight="800" fill="#c0892c" text-anchor="middle">합류 폼</text><line x1="859" y1="264" x2="1118" y2="264" stroke="#dcad5e" stroke-width="1.5" stroke-opacity=".5"/><text x="989" y="306" font-family="Pretendard,'Apple SD Gothic Neo','Malgun Gothic',sans-serif" font-size="23" font-weight="400" fill="#5a4528" text-anchor="middle">3가지만 제출</text><path d="M1168,381 L1188,397 L1168,413" fill="none" stroke="#c0892c" stroke-width="6" stroke-linecap="round" stroke-linejoin="round"/><rect x="1202" y="170" width="328" height="454" rx="20" fill="#fffdf6" stroke="#dcad5e" stroke-width="2"/><text x="1366" y="244" font-family="Pretendard,'Apple SD Gothic Neo','Malgun Gothic',sans-serif" font-size="31" font-weight="800" fill="#c0892c" text-anchor="middle">문의</text><line x1="1236" y1="264" x2="1496" y2="264" stroke="#dcad5e" stroke-width="1.5" stroke-opacity=".5"/><text x="1366" y="306" font-family="Pretendard,'Apple SD Gothic Neo','Malgun Gothic',sans-serif" font-size="23" font-weight="400" fill="#5a4528" text-anchor="middle">FAQ</text></svg>