<svg xmlns="http://www.w3.org/2000/svg" viewBox="0 0 1600 700" role="img" aria-label="헐버트 문서 일러스트"><defs><linearGradient id="sky" x1="0" y1="0" x2="0" y2="1"><stop offset="0" stop-color="#fdf4df"/><stop offset="1" stop-color="#f8e3bb"/></linearGradient></defs><rect width="1600" height="700" fill="url(#sky)"/><circle cx="1352" cy="190" r="115" fill="#f1b549" fill-opacity=".18"/><circle cx="1352" cy="190" r="72" fill="#f1b549"/><path d="M0,470 Q400,320 800,415.5 T1600,470 L1600,700 L0,700 Z" fill="#edcf8f"/><path d="M0,516 Q400,396 800,476.0 T1600,516 L1600,700 L0,700 Z" fill="#daad5e"/><rect x="781" y="452" width="150" height="68" fill="#5d4626" fill-opacity=".92"/><rect x="844" y="470" width="24" height="50" fill="#fdf4df" fill-opacity=".55"/><path d="M706,452 C781,374 931,374 1006,452 C938,416 774,416 706,452 Z" fill="#5d4626"/><rect x="692" y="446" width="328" height="9" rx="4" fill="#5d4626"/><path d="M0,560 Q400,464 800,525.4 T1600,560 L1600,700 L0,700 Z" fill="#bf8940"/><circle cx="1410" cy="110" r="50" fill="#fff" fill-opacity=".34"/><circle cx="1410" cy="110" r="50" fill="none" stroke="#c0892c" stroke-width="2.5" stroke-opacity=".7"/><path d="M1392,126 V108 L1410,92 L1428,108 V126 Z" fill="none" stroke="#c0892c" stroke-width="3.5" stroke-linejoin="round"/></svg>